# ProBuilder 4.5.2
# https://unity3d.com/unity/features/worldbuilding/probuilder
# 9/17/2021 9:34:08 AM

mtllib ./Container.mtl
o Container

g Container
v 0 0 0
v -3.001877 0 0
v -4.592853E-07 1 -3.540441E-08
v -3.001878 1 -3.540441E-08
v -3.001877 0 -1
v -3.001878 1 -1
v 0 0 -1
v -4.592853E-07 1 -1

vt 0.99414 -0.001374364
vt 0.009149194 -0.001374364
vt 0.9941399 0.4984134
vt 0.009148955 0.4984134
vt 0.9952724 0.502955
vt 0.5107753 0.502955
vt 0.9952724 0.9908748
vt 0.5107753 0.9908748
vt 0.9930403 0.01023075
vt 0.005083323 0.01023075
vt 0.9930406 0.4916524
vt 0.005083561 0.4916524
vt 0.4968852 0.5049338
vt 0.001157612 0.5049338
vt 0.4968852 0.9968772
vt 0.001157612 0.9968772
vt 0.006676197 0.491847
vt 0.9918778 0.491847
vt 0.006676197 0.01064569
vt 0.9918778 0.01064569
vt 0.9924722 0.03233051
vt 0.0004837513 0.03233051
vt 0.9924722 0.4918515
vt 0.0004837513 0.4918515

vn 0 3.540441E-08 1
vn -1 -7.152557E-07 0
vn 0 0 -1
vn 1 4.592853E-07 0
vn 0 1 0
vn 0 -1 0

usemtl Container
f 3/3/1 4/4/1 2/2/1 1/1/1
f 4/7/2 6/8/2 5/6/2 2/5/2
f 6/11/3 8/12/3 7/10/3 5/9/3
f 8/15/4 3/16/4 1/14/4 7/13/4
f 8/19/5 6/20/5 4/18/5 3/17/5
f 1/23/6 2/24/6 5/22/6 7/21/6

